<mxfile host="app.diagrams.net" agent="Mozilla/5.0 (Windows NT 10.0; Win64; x64) AppleWebKit/537.36 (KHTML, like Gecko) Chrome/135.0.0.0 Safari/537.36" version="26.2.14">
  <diagram id="homestay_management_use_case" name="民宿管理用例图">
    <mxGraphModel dx="906" dy="458" grid="1" gridSize="10" guides="1" tooltips="1" connect="1" arrows="1" fold="1" page="1" pageScale="1" pageWidth="1654" pageHeight="1169" math="0" shadow="0">
      <root>
        <mxCell id="0" />
        <mxCell id="1" parent="0" />
        <mxCell id="actor-host" value="房东 (Host)" style="shape=umlActor;verticalLabelPosition=bottom;verticalAlign=top;html=1;outlineConnect=0;labelBackgroundColor=none;" parent="1" vertex="1">
          <mxGeometry x="80" y="350" width="30" height="60" as="geometry" />
        </mxCell>
        <mxCell id="actor-user" value="用户 (User)" style="shape=umlActor;verticalLabelPosition=bottom;verticalAlign=top;html=1;outlineConnect=0;labelBackgroundColor=none;" parent="1" vertex="1">
          <mxGeometry x="80" y="700" width="30" height="60" as="geometry" />
        </mxCell>
        <mxCell id="actor-admin" value="管理员 (Admin)" style="shape=umlActor;verticalLabelPosition=bottom;verticalAlign=top;html=1;outlineConnect=0;labelBackgroundColor=none;" parent="1" vertex="1">
          <mxGeometry x="1500" y="500" width="30" height="60" as="geometry" />
        </mxCell>
        <mxCell id="uc-user-view-details" value="查看房源详情" style="ellipse;whiteSpace=wrap;html=1;labelBackgroundColor=none;" parent="1" vertex="1">
          <mxGeometry x="730" y="500" width="140" height="70" as="geometry" />
        </mxCell>
        <mxCell id="uc-host-create" value="创建房源" style="ellipse;whiteSpace=wrap;html=1;labelBackgroundColor=none;" parent="1" vertex="1">
          <mxGeometry x="280" y="200" width="140" height="70" as="geometry" />
        </mxCell>
        <mxCell id="uc-host-manage" value="管理我的房源" style="ellipse;whiteSpace=wrap;html=1;labelBackgroundColor=none;" parent="1" vertex="1">
          <mxGeometry x="280" y="350" width="140" height="70" as="geometry" />
        </mxCell>
        <mxCell id="uc-host-view-list" value="查看我的房源列表" style="ellipse;whiteSpace=wrap;html=1;labelBackgroundColor=none;" parent="1" vertex="1">
          <mxGeometry x="500" y="200" width="140" height="70" as="geometry" />
        </mxCell>
        <mxCell id="uc-host-update" value="更新房源信息" style="ellipse;whiteSpace=wrap;html=1;labelBackgroundColor=none;" parent="1" vertex="1">
          <mxGeometry x="500" y="290" width="140" height="70" as="geometry" />
        </mxCell>
        <mxCell id="uc-host-update-status" value="更新房源状态" style="ellipse;whiteSpace=wrap;html=1;labelBackgroundColor=none;" parent="1" vertex="1">
          <mxGeometry x="500" y="380" width="140" height="70" as="geometry" />
        </mxCell>
        <mxCell id="uc-host-delete" value="删除房源" style="ellipse;whiteSpace=wrap;html=1;labelBackgroundColor=none;" parent="1" vertex="1">
          <mxGeometry x="500" y="470" width="140" height="70" as="geometry" />
        </mxCell>
        <mxCell id="uc-user-search" value="搜索/浏览房源" style="ellipse;whiteSpace=wrap;html=1;labelBackgroundColor=none;" parent="1" vertex="1">
          <mxGeometry x="280" y="600" width="140" height="70" as="geometry" />
        </mxCell>
        <mxCell id="uc-user-view-featured" value="查看推荐房源" style="ellipse;whiteSpace=wrap;html=1;labelBackgroundColor=none;" parent="1" vertex="1">
          <mxGeometry x="280" y="750" width="140" height="70" as="geometry" />
        </mxCell>
        <mxCell id="uc-user-view-type" value="按类型查看房源" style="ellipse;whiteSpace=wrap;html=1;labelBackgroundColor=none;" parent="1" vertex="1">
          <mxGeometry x="280" y="850" width="140" height="70" as="geometry" />
        </mxCell>
        <mxCell id="uc-admin-manage-all" value="管理所有房源" style="ellipse;whiteSpace=wrap;html=1;labelBackgroundColor=none;" parent="1" vertex="1">
          <mxGeometry x="1180" y="350" width="140" height="70" as="geometry" />
        </mxCell>
        <mxCell id="uc-admin-manage-types" value="管理房源类型" style="ellipse;whiteSpace=wrap;html=1;labelBackgroundColor=none;" parent="1" vertex="1">
          <mxGeometry x="1180" y="600" width="140" height="70" as="geometry" />
        </mxCell>
        <mxCell id="uc-admin-manage-amenities" value="管理设施" style="ellipse;whiteSpace=wrap;html=1;labelBackgroundColor=none;" parent="1" vertex="1">
          <mxGeometry x="1180" y="700" width="140" height="70" as="geometry" />
        </mxCell>
        <mxCell id="uc-admin-view-all-list" value="查看所有房源列表" style="ellipse;whiteSpace=wrap;html=1;labelBackgroundColor=none;" parent="1" vertex="1">
          <mxGeometry x="950" y="150" width="140" height="70" as="geometry" />
        </mxCell>
        <mxCell id="uc-admin-create" value="创建房源" style="ellipse;whiteSpace=wrap;html=1;labelBackgroundColor=none;" parent="1" vertex="1">
          <mxGeometry x="950" y="240" width="140" height="70" as="geometry" />
        </mxCell>
        <mxCell id="uc-admin-update-any" value="更新任意房源" style="ellipse;whiteSpace=wrap;html=1;labelBackgroundColor=none;" parent="1" vertex="1">
          <mxGeometry x="950" y="330" width="140" height="70" as="geometry" />
        </mxCell>
        <mxCell id="uc-admin-update-any-status" value="更新任意房源状态" style="ellipse;whiteSpace=wrap;html=1;labelBackgroundColor=none;" parent="1" vertex="1">
          <mxGeometry x="950" y="420" width="140" height="70" as="geometry" />
        </mxCell>
        <mxCell id="uc-admin-delete-any" value="删除任意房源" style="ellipse;whiteSpace=wrap;html=1;labelBackgroundColor=none;" parent="1" vertex="1">
          <mxGeometry x="950" y="510" width="140" height="70" as="geometry" />
        </mxCell>
        <mxCell id="uc-admin-delete-bulk" value="批量删除房源" style="ellipse;whiteSpace=wrap;html=1;labelBackgroundColor=none;" parent="1" vertex="1">
          <mxGeometry x="950" y="600" width="140" height="70" as="geometry" />
        </mxCell>
        <mxCell id="assoc-host-create" value="" style="endArrow=none;html=1;rounded=0;labelBackgroundColor=none;fontColor=default;" parent="1" source="actor-host" target="uc-host-create" edge="1">
          <mxGeometry width="50" height="50" relative="1" as="geometry">
            <mxPoint x="180" y="380" as="sourcePoint" />
            <mxPoint x="260" y="235" as="targetPoint" />
          </mxGeometry>
        </mxCell>
        <mxCell id="assoc-host-manage" value="" style="endArrow=none;html=1;rounded=0;labelBackgroundColor=none;fontColor=default;" parent="1" source="actor-host" target="uc-host-manage" edge="1">
          <mxGeometry width="50" height="50" relative="1" as="geometry">
            <mxPoint x="180" y="380" as="sourcePoint" />
            <mxPoint x="260" y="385" as="targetPoint" />
          </mxGeometry>
        </mxCell>
        <mxCell id="assoc-user-search" value="" style="endArrow=none;html=1;rounded=0;labelBackgroundColor=none;fontColor=default;" parent="1" source="actor-user" target="uc-user-search" edge="1">
          <mxGeometry width="50" height="50" relative="1" as="geometry">
            <mxPoint x="180" y="730" as="sourcePoint" />
            <mxPoint x="260" y="635" as="targetPoint" />
          </mxGeometry>
        </mxCell>
        <mxCell id="assoc-user-view-details" value="" style="endArrow=none;html=1;rounded=0;labelBackgroundColor=none;fontColor=default;" parent="1" source="actor-user" target="uc-user-view-details" edge="1">
          <mxGeometry width="50" height="50" relative="1" as="geometry">
            <mxPoint x="180" y="730" as="sourcePoint" />
            <mxPoint x="710" y="535" as="targetPoint" />
            <Array as="points">
              <mxPoint x="400" y="730" />
              <mxPoint x="710" y="535" />
            </Array>
          </mxGeometry>
        </mxCell>
        <mxCell id="assoc-user-view-featured" value="" style="endArrow=none;html=1;rounded=0;labelBackgroundColor=none;fontColor=default;" parent="1" source="actor-user" target="uc-user-view-featured" edge="1">
          <mxGeometry width="50" height="50" relative="1" as="geometry">
            <mxPoint x="180" y="730" as="sourcePoint" />
            <mxPoint x="260" y="785" as="targetPoint" />
          </mxGeometry>
        </mxCell>
        <mxCell id="assoc-user-view-type" value="" style="endArrow=none;html=1;rounded=0;labelBackgroundColor=none;fontColor=default;" parent="1" source="actor-user" target="uc-user-view-type" edge="1">
          <mxGeometry width="50" height="50" relative="1" as="geometry">
            <mxPoint x="180" y="730" as="sourcePoint" />
            <mxPoint x="260" y="885" as="targetPoint" />
          </mxGeometry>
        </mxCell>
        <mxCell id="assoc-admin-manage-all" value="" style="endArrow=none;html=1;rounded=0;labelBackgroundColor=none;fontColor=default;" parent="1" source="actor-admin" target="uc-admin-manage-all" edge="1">
          <mxGeometry width="50" height="50" relative="1" as="geometry">
            <mxPoint x="1400" y="530" as="sourcePoint" />
            <mxPoint x="1340" y="385" as="targetPoint" />
          </mxGeometry>
        </mxCell>
        <mxCell id="assoc-admin-manage-types" value="" style="endArrow=none;html=1;rounded=0;labelBackgroundColor=none;fontColor=default;" parent="1" source="actor-admin" target="uc-admin-manage-types" edge="1">
          <mxGeometry width="50" height="50" relative="1" as="geometry">
            <mxPoint x="1400" y="530" as="sourcePoint" />
            <mxPoint x="1340" y="635" as="targetPoint" />
          </mxGeometry>
        </mxCell>
        <mxCell id="assoc-admin-manage-amenities" value="" style="endArrow=none;html=1;rounded=0;labelBackgroundColor=none;fontColor=default;" parent="1" source="actor-admin" target="uc-admin-manage-amenities" edge="1">
          <mxGeometry width="50" height="50" relative="1" as="geometry">
            <mxPoint x="1400" y="530" as="sourcePoint" />
            <mxPoint x="1340" y="735" as="targetPoint" />
          </mxGeometry>
        </mxCell>
        <mxCell id="include-host-manage-view" value="" style="edgeStyle=orthogonalEdgeStyle;html=1;align=left;verticalAlign=bottom;endArrow=open;endSize=8;dashed=1;labelBackgroundColor=none;fontColor=default;" parent="1" source="uc-host-manage" target="uc-host-view-list" edge="1">
          <mxGeometry relative="1" as="geometry" />
        </mxCell>
        <mxCell id="include-host-manage-details" value="" style="edgeStyle=orthogonalEdgeStyle;html=1;align=left;verticalAlign=bottom;endArrow=open;endSize=8;dashed=1;labelBackgroundColor=none;fontColor=default;" parent="1" source="uc-host-manage" target="uc-user-view-details" edge="1">
          <mxGeometry relative="1" as="geometry">
            <mxPoint x="430" y="385" as="sourcePoint" />
            <mxPoint x="710" y="535" as="targetPoint" />
            <Array as="points">
              <mxPoint x="430" y="535" />
            </Array>
          </mxGeometry>
        </mxCell>
        <mxCell id="include-host-manage-update" value="" style="edgeStyle=orthogonalEdgeStyle;html=1;align=left;verticalAlign=bottom;endArrow=open;endSize=8;dashed=1;labelBackgroundColor=none;fontColor=default;" parent="1" source="uc-host-manage" target="uc-host-update" edge="1">
          <mxGeometry relative="1" as="geometry" />
        </mxCell>
        <mxCell id="include-host-manage-status" value="" style="edgeStyle=orthogonalEdgeStyle;html=1;align=left;verticalAlign=bottom;endArrow=open;endSize=8;dashed=1;labelBackgroundColor=none;fontColor=default;" parent="1" source="uc-host-manage" target="uc-host-update-status" edge="1">
          <mxGeometry relative="1" as="geometry" />
        </mxCell>
        <mxCell id="include-host-manage-delete" value="" style="edgeStyle=orthogonalEdgeStyle;html=1;align=left;verticalAlign=bottom;endArrow=open;endSize=8;dashed=1;labelBackgroundColor=none;fontColor=default;" parent="1" source="uc-host-manage" target="uc-host-delete" edge="1">
          <mxGeometry relative="1" as="geometry" />
        </mxCell>
        <mxCell id="include-admin-manage-view-all" value="" style="edgeStyle=orthogonalEdgeStyle;html=1;align=left;verticalAlign=bottom;endArrow=open;endSize=8;dashed=1;labelBackgroundColor=none;fontColor=default;" parent="1" source="uc-admin-manage-all" target="uc-admin-view-all-list" edge="1">
          <mxGeometry relative="1" as="geometry" />
        </mxCell>
        <mxCell id="include-admin-manage-details" value="" style="edgeStyle=orthogonalEdgeStyle;html=1;align=left;verticalAlign=bottom;endArrow=open;endSize=8;dashed=1;labelBackgroundColor=none;fontColor=default;" parent="1" source="uc-admin-manage-all" target="uc-user-view-details" edge="1">
          <mxGeometry relative="1" as="geometry">
            <mxPoint x="1170" y="385" as="sourcePoint" />
            <mxPoint x="890" y="535" as="targetPoint" />
            <Array as="points">
              <mxPoint x="1170" y="535" />
            </Array>
          </mxGeometry>
        </mxCell>
        <mxCell id="include-admin-manage-create" value="" style="edgeStyle=orthogonalEdgeStyle;html=1;align=left;verticalAlign=bottom;endArrow=open;endSize=8;dashed=1;labelBackgroundColor=none;fontColor=default;" parent="1" source="uc-admin-manage-all" target="uc-admin-create" edge="1">
          <mxGeometry relative="1" as="geometry" />
        </mxCell>
        <mxCell id="include-admin-manage-update" value="" style="edgeStyle=orthogonalEdgeStyle;html=1;align=left;verticalAlign=bottom;endArrow=open;endSize=8;dashed=1;labelBackgroundColor=none;fontColor=default;" parent="1" source="uc-admin-manage-all" target="uc-admin-update-any" edge="1">
          <mxGeometry relative="1" as="geometry" />
        </mxCell>
        <mxCell id="include-admin-manage-status" value="" style="edgeStyle=orthogonalEdgeStyle;html=1;align=left;verticalAlign=bottom;endArrow=open;endSize=8;dashed=1;labelBackgroundColor=none;fontColor=default;" parent="1" source="uc-admin-manage-all" target="uc-admin-update-any-status" edge="1">
          <mxGeometry relative="1" as="geometry" />
        </mxCell>
        <mxCell id="include-admin-manage-delete" value="" style="edgeStyle=orthogonalEdgeStyle;html=1;align=left;verticalAlign=bottom;endArrow=open;endSize=8;dashed=1;labelBackgroundColor=none;fontColor=default;" parent="1" source="uc-admin-manage-all" target="uc-admin-delete-any" edge="1">
          <mxGeometry relative="1" as="geometry" />
        </mxCell>
        <mxCell id="include-admin-manage-bulkdel" value="" style="edgeStyle=orthogonalEdgeStyle;html=1;align=left;verticalAlign=bottom;endArrow=open;endSize=8;dashed=1;labelBackgroundColor=none;fontColor=default;" parent="1" source="uc-admin-manage-all" target="uc-admin-delete-bulk" edge="1">
          <mxGeometry relative="1" as="geometry" />
        </mxCell>
      </root>
    </mxGraphModel>
  </diagram>
</mxfile>
